<svg width="44" height="44" viewBox="0 0 44 44" fill="none" xmlns="http://www.w3.org/2000/svg">
<path d="M32.3222 23.2492C30.2611 17.893 22.9225 17.6042 24.6948 9.81925C24.8261 9.24162 24.2091 8.79526 23.7102 9.09721C18.9447 11.9066 15.5183 17.5385 18.3934 24.9165C18.6297 25.5204 17.9207 26.0849 17.4087 25.691C15.0326 23.8925 14.7831 21.3063 14.9932 19.4552C15.072 18.7726 14.1793 18.4444 13.7985 19.0089C12.9058 20.3742 12 22.5797 12 25.9011C12.4989 33.2528 18.7084 35.5108 20.9402 35.7996C24.1303 36.2066 27.583 35.6158 30.0642 33.3447C32.7948 30.811 33.7925 26.7675 32.3222 23.2492ZM20.1394 29.8526C22.0298 29.3931 23.0013 28.0278 23.2638 26.82C23.6971 24.9427 22.0036 23.1048 23.1457 20.1379C23.5789 22.5928 27.4386 24.1288 27.4386 26.8069C27.5436 30.1283 23.9465 32.9771 20.1394 29.8526Z" fill="#CE4040"/>
</svg>
