<svg width="44" height="44" viewBox="0 0 44 44" fill="none" xmlns="http://www.w3.org/2000/svg">
<path d="M32.4 12H11.6C10.17 12 9 13.1812 9 14.625V30.375C9 31.8188 10.17 33 11.6 33H32.4C33.83 33 35 31.8188 35 30.375V14.625C35 13.1812 33.83 12 32.4 12ZM31.88 17.5781L23.378 22.9462C22.533 23.4844 21.467 23.4844 20.622 22.9462L12.12 17.5781C11.795 17.3681 11.6 17.0138 11.6 16.6331C11.6 15.7538 12.549 15.2287 13.29 15.6881L22 21.1875L30.71 15.6881C31.451 15.2287 32.4 15.7538 32.4 16.6331C32.4 17.0138 32.205 17.3681 31.88 17.5781Z" fill="#C6C6C6"/>
</svg>
