<svg viewBox="0 0 14 14" fill="none" xmlns="http://www.w3.org/2000/svg">
<path d="M7 0C3.136 0 0 3.136 0 7C0 10.864 3.136 14 7 14C10.864 14 14 10.864 14 7C14 3.136 10.864 0 7 0ZM7 12.6C3.913 12.6 1.4 10.087 1.4 7C1.4 3.913 3.913 1.4 7 1.4C10.087 1.4 12.6 3.913 12.6 7C12.6 10.087 10.087 12.6 7 12.6ZM9.716 4.403L5.6 8.519L4.284 7.203C4.011 6.93 3.57 6.93 3.297 7.203C3.024 7.476 3.024 7.917 3.297 8.19L5.11 10.003C5.383 10.276 5.824 10.276 6.097 10.003L10.71 5.39C10.983 5.117 10.983 4.676 10.71 4.403C10.437 4.13 9.989 4.13 9.716 4.403Z" fill="#06C755"/>
</svg>
