<svg width="19" height="19" viewBox="0 0 19 19" fill="none" xmlns="http://www.w3.org/2000/svg">
<path d="M18.5785 0.435912C18.0165 -0.12609 17.1086 -0.12609 16.5466 0.435912L9.5 7.46815L2.45336 0.421502C1.89135 -0.140501 0.983504 -0.140501 0.421502 0.421502C-0.140501 0.983504 -0.140501 1.89135 0.421502 2.45336L7.46815 9.5L0.421502 16.5466C-0.140501 17.1086 -0.140501 18.0165 0.421502 18.5785C0.983504 19.1405 1.89135 19.1405 2.45336 18.5785L9.5 11.5319L16.5466 18.5785C17.1086 19.1405 18.0165 19.1405 18.5785 18.5785C19.1405 18.0165 19.1405 17.1086 18.5785 16.5466L11.5319 9.5L18.5785 2.45336C19.1261 1.90576 19.1261 0.983504 18.5785 0.435912Z" fill="white"/>
</svg>
