<svg width="29" height="14" viewBox="0 0 29 14" fill="none" xmlns="http://www.w3.org/2000/svg">
<path d="M21.75 0H17.4C16.6025 0 15.95 0.63 15.95 1.4C15.95 2.17 16.6025 2.8 17.4 2.8H21.75C24.1425 2.8 26.1 4.69 26.1 7C26.1 9.31 24.1425 11.2 21.75 11.2H17.4C16.6025 11.2 15.95 11.83 15.95 12.6C15.95 13.37 16.6025 14 17.4 14H21.75C25.752 14 29 10.864 29 7C29 3.136 25.752 0 21.75 0ZM8.7 7C8.7 7.77 9.3525 8.4 10.15 8.4H18.85C19.6475 8.4 20.3 7.77 20.3 7C20.3 6.23 19.6475 5.6 18.85 5.6H10.15C9.3525 5.6 8.7 6.23 8.7 7ZM11.6 11.2H7.25C4.8575 11.2 2.9 9.31 2.9 7C2.9 4.69 4.8575 2.8 7.25 2.8H11.6C12.3975 2.8 13.05 2.17 13.05 1.4C13.05 0.63 12.3975 0 11.6 0H7.25C3.248 0 0 3.136 0 7C0 10.864 3.248 14 7.25 14H11.6C12.3975 14 13.05 13.37 13.05 12.6C13.05 11.83 12.3975 11.2 11.6 11.2Z" fill="white"/>
</svg>
