<svg width="11" height="19" viewBox="0 0 11 19" fill="none" xmlns="http://www.w3.org/2000/svg">
<path d="M10.1479 0.779125C10.3875 1.01871 10.5073 1.30238 10.5073 1.63013C10.5073 1.95724 10.3875 2.24058 10.1479 2.48017L3.12816 9.49996L10.1719 16.5437C10.3955 16.7673 10.5073 17.0468 10.5073 17.3823C10.5073 17.7177 10.3875 18.0052 10.1479 18.2448C9.90837 18.4843 9.6247 18.6041 9.29695 18.6041C8.96984 18.6041 8.68649 18.4843 8.44691 18.2448L0.396906 10.1708C0.301073 10.075 0.233032 9.97114 0.192782 9.85933C0.15317 9.74753 0.133365 9.62774 0.133365 9.49996C0.133365 9.37218 0.15317 9.25239 0.192781 9.14058C0.233031 9.02878 0.301072 8.92496 0.396906 8.82913L8.47086 0.755167C8.69448 0.531556 8.96984 0.41975 9.29695 0.41975C9.6247 0.41975 9.90836 0.539542 10.1479 0.779125Z" fill="#CDCDCD"/>
</svg>
