<svg width="16" height="20" viewBox="0 0 16 20" fill="none" xmlns="http://www.w3.org/2000/svg">
<path d="M13.5 7H12.5834V5.25C12.5834 2.835 10.53 0.875 8.00002 0.875C5.47002 0.875 3.41669 2.835 3.41669 5.25V7H2.50002C1.49169 7 0.666687 7.7875 0.666687 8.75V17.5C0.666687 18.4625 1.49169 19.25 2.50002 19.25H13.5C14.5084 19.25 15.3334 18.4625 15.3334 17.5V8.75C15.3334 7.7875 14.5084 7 13.5 7ZM5.25002 5.25C5.25002 3.7975 6.47835 2.625 8.00002 2.625C9.52169 2.625 10.75 3.7975 10.75 5.25V7H5.25002V5.25ZM12.5834 17.5H3.41669C2.91252 17.5 2.50002 17.1063 2.50002 16.625V9.625C2.50002 9.14375 2.91252 8.75 3.41669 8.75H12.5834C13.0875 8.75 13.5 9.14375 13.5 9.625V16.625C13.5 17.1063 13.0875 17.5 12.5834 17.5ZM8.00002 14.875C9.00835 14.875 9.83335 14.0875 9.83335 13.125C9.83335 12.1625 9.00835 11.375 8.00002 11.375C6.99169 11.375 6.16669 12.1625 6.16669 13.125C6.16669 14.0875 6.99169 14.875 8.00002 14.875Z" fill="#B3B3B3"/>
</svg>
