<svg width="16" height="22" viewBox="0 0 16 22" fill="none" xmlns="http://www.w3.org/2000/svg">
<path d="M8.0013 21.9665C9.16145 21.9665 10.1107 20.9563 10.1107 19.7215H5.89194C5.89194 20.9563 6.83061 21.9665 8.0013 21.9665ZM14.3294 15.2315V9.61895C14.3294 6.17285 12.5997 3.28801 9.58332 2.5247V1.7614C9.58332 0.829717 8.87668 0.0776367 8.0013 0.0776367C7.12592 0.0776367 6.41928 0.829717 6.41928 1.7614V2.5247C3.39235 3.28801 1.67322 6.16163 1.67322 9.61895V15.2315L0.312688 16.6795C-0.35176 17.3867 0.112299 18.599 1.05096 18.599H14.9411C15.8798 18.599 16.3544 17.3867 15.6899 16.6795L14.3294 15.2315Z" fill="white"/>
</svg>
