<svg viewBox="0 0 16 21" fill="none" xmlns="http://www.w3.org/2000/svg">
<path d="M8.0013 20.2105C9.16145 20.2105 10.1107 19.2777 10.1107 18.1376H5.89194C5.89194 19.2777 6.83061 20.2105 8.0013 20.2105ZM14.3294 13.9919V8.80972C14.3294 5.62785 12.5997 2.96421 9.58332 2.25943V1.55466C9.58332 0.694413 8.87668 0 8.0013 0C7.12592 0 6.41928 0.694413 6.41928 1.55466V2.25943C3.39235 2.96421 1.67322 5.61749 1.67322 8.80972V13.9919L0.312688 15.3289C-0.35176 15.9819 0.112299 17.1012 1.05096 17.1012H14.9411C15.8798 17.1012 16.3544 15.9819 15.6899 15.3289L14.3294 13.9919Z" fill="#CE4040"/>
</svg>
