<svg width="140" height="18" viewBox="0 0 140 18" fill="none" xmlns="http://www.w3.org/2000/svg">
<path d="M1.49454 1.65569V3.54569H6.53454C6.15654 5.74169 4.15854 7.54169 0.594535 8.51369L1.53054 10.3497C6.35454 9.01769 9.05454 6.02969 9.05454 1.65569H1.49454ZM5.81454 12.5097H12.0425V15.2277H5.81454V12.5097ZM3.47454 17.0817H14.3825V10.6377H3.47454V17.0817ZM12.0065 0.719689V4.62569H9.14454V6.55169H12.0065V9.95369H14.3825V0.719689H12.0065ZM25.4331 8.11769C23.2371 7.19969 22.3551 5.38169 22.3551 3.54569V1.61969H20.0691V3.54569C20.0691 5.43569 19.1691 7.48769 16.8471 8.51369L18.1071 10.3677C19.6371 9.70169 20.6451 8.53169 21.2571 7.12769C21.8331 8.35169 22.7871 9.34169 24.1731 9.91769L25.4331 8.11769ZM19.7991 13.3737H28.8351V17.2977H31.2111V11.5017H19.7991V13.3737ZM28.9611 0.701689V4.73369H27.6651V0.953689H25.4511V10.6737H27.6651V6.64169H28.9611V10.7637H31.2111V0.701689H28.9611ZM49.2018 4.57169V5.99369H45.5298V7.77569H49.2018V9.01769H51.5778V0.701689H49.2018V2.78969H46.1598C46.2318 2.32169 46.2678 1.83569 46.2678 1.33169H38.8698V3.22169H43.6578C43.3698 5.16569 41.6778 6.74969 37.9158 7.48769L38.7078 9.39569C42.3438 8.60369 44.6838 7.03769 45.6918 4.57169H49.2018ZM43.0458 15.2457V14.2017H51.5778V9.62969H40.6518V11.5017H49.2018V12.4377H40.6698V17.1177H51.9198V15.2457H43.0458ZM63.0604 10.0437C63.5104 7.30769 63.5104 5.29169 63.5104 3.68969V2.33969H54.9784V4.22969H61.1704C61.1704 5.70569 61.1164 7.48769 60.7384 9.84569L63.0604 10.0437ZM59.4424 7.09169H57.1024V11.9877C56.0584 12.0057 55.0504 12.0057 54.1324 12.0057L54.3484 13.9497C57.2284 13.9317 60.9364 13.8597 64.3024 13.2837L64.1764 11.5737C62.6644 11.7537 61.0444 11.8617 59.4424 11.9157V7.09169ZM69.5404 7.36169H67.3084V0.683689H64.9324V17.2617H67.3084V9.34169H69.5404V7.36169ZM71.591 2.39369V4.31969H77.009C76.577 7.99169 74.525 10.6197 70.673 12.5997L72.005 14.4177C77.513 11.6277 79.403 7.36169 79.403 2.39369H71.591ZM86.135 7.01969H83.813V0.683689H81.437V17.2437H83.813V8.98169H86.135V7.01969ZM93.9558 5.21969C93.9558 3.99569 94.8378 3.27569 96.0438 3.27569C97.2678 3.27569 98.1498 3.99569 98.1498 5.21969C98.1498 6.46169 97.2678 7.18169 96.0438 7.18169C94.8378 7.18169 93.9558 6.46169 93.9558 5.21969ZM102.956 6.17369V9.46769H105.332V0.701689H102.956V4.24769H100.292C99.8418 2.48369 98.1678 1.31369 96.0438 1.31369C93.5598 1.31369 91.6878 2.95169 91.6878 5.21969C91.6878 7.50569 93.5598 9.14369 96.0438 9.14369C98.1678 9.14369 99.8598 7.95569 100.31 6.17369H102.956ZM97.1598 15.3177H95.4858V13.7517H97.1598V15.3177ZM104.252 10.2777H101.912V11.5197C101.912 13.0137 101.156 14.5437 99.3378 15.3897V10.4217H97.1598V12.0417H95.4858V10.4217H93.2898V17.0817H99.3378V15.8397L100.274 17.2617C101.606 16.7397 102.506 15.8037 103.046 14.6697C103.586 15.8217 104.504 16.7577 105.89 17.2617L107.06 15.4977C105.044 14.7957 104.252 13.2297 104.252 11.5197V10.2777ZM112.566 11.5377C111.36 11.5377 110.55 10.2237 110.55 7.75769C110.55 5.30969 111.36 3.99569 112.566 3.99569C113.79 3.99569 114.6 5.30969 114.6 7.75769C114.6 10.2237 113.79 11.5377 112.566 11.5377ZM119.568 0.683689V6.65969H116.796C116.472 3.67169 114.798 1.85369 112.566 1.85369C110.1 1.85369 108.282 4.12169 108.282 7.75769C108.282 11.4117 110.1 13.6977 112.566 13.6977C114.87 13.6977 116.562 11.7537 116.814 8.58569H119.568V17.3157H121.944V0.683689H119.568ZM130.259 10.2597C130.835 10.3677 131.429 10.4217 132.077 10.4217C132.725 10.4217 133.337 10.3677 133.913 10.2597V13.4277H130.259V10.2597ZM132.077 3.38369C134.381 3.38369 135.929 4.31969 135.929 5.97569C135.929 7.61369 134.381 8.56769 132.077 8.56769C129.773 8.56769 128.243 7.61369 128.243 5.97569C128.243 4.31969 129.773 3.38369 132.077 3.38369ZM136.271 13.4277V9.37769C137.513 8.60369 138.269 7.41569 138.269 5.97569C138.269 3.25769 135.659 1.51169 132.077 1.51169C128.513 1.51169 125.903 3.25769 125.903 5.97569C125.885 7.41569 126.641 8.60369 127.901 9.37769V13.4277H124.589V15.3537H139.601V13.4277H136.271Z" fill="#DF8383"/>
</svg>
