<svg width="211" height="18" viewBox="0 0 211 18" fill="none" xmlns="http://www.w3.org/2000/svg">
<path d="M6.94325 1.888V3.094C6.94325 5.488 4.87325 8.134 1.11125 8.782L2.13725 10.762C6.45725 9.916 9.03125 6.712 9.03125 3.094V1.888H6.94325ZM7.42925 1.888V3.094C7.42925 6.766 9.98525 9.916 14.3053 10.762L15.3313 8.782C11.5513 8.134 9.49925 5.542 9.49925 3.094V1.888H7.42925ZM0.76925 13.624V15.568H15.8533V13.624H0.76925ZM19.0198 2.392V4.3H29.5138V2.392H19.0198ZM17.3278 13.678V15.64H32.3938V13.678H17.3278ZM28.5058 2.392V4.318C28.5058 6.676 28.5058 9.106 27.7318 12.472L30.0898 12.688C30.8638 9.052 30.8638 6.748 30.8638 4.318V2.392H28.5058ZM29.0098 6.964L18.5338 7.306L18.8218 9.232L29.0098 8.728V6.964ZM45.8024 0.934V10.204H48.0704V0.934H45.8024ZM43.9124 4.624V6.532H46.5584V4.624H43.9124ZM42.2384 1.204V10.114H44.4704V1.204H42.2384ZM36.7664 10.888V17.422H48.0704V10.888H45.7304V12.274H39.1244V10.888H36.7664ZM39.1244 14.092H45.7304V15.514H39.1244V14.092ZM34.5344 7.828V9.718H35.6864C38.1524 9.718 39.7724 9.682 41.6624 9.322L41.4644 7.432C39.6284 7.774 38.0804 7.828 35.6864 7.828H34.5344ZM34.5164 1.78V3.652H38.5304V4.804H34.5344V9.502H36.8564V6.55H40.8344V1.78H34.5164ZM65.2332 0.952V13.408H67.6272V0.952H65.2332ZM66.9432 6.028V7.99H69.8412V6.028H66.9432ZM54.5052 2.68V4.552H64.3152V2.68H54.5052ZM59.4192 5.146C57.0072 5.146 55.3152 6.46 55.3152 8.368C55.3152 10.276 57.0072 11.572 59.4192 11.572C61.8132 11.572 63.5052 10.276 63.5052 8.368C63.5052 6.46 61.8132 5.146 59.4192 5.146ZM59.4192 6.964C60.4812 6.964 61.2192 7.468 61.2192 8.368C61.2192 9.268 60.4812 9.754 59.4192 9.754C58.3572 9.754 57.6192 9.268 57.6192 8.368C57.6192 7.468 58.3572 6.964 59.4192 6.964ZM58.2132 0.915999V3.598H60.6072V0.915999H58.2132ZM56.8812 15.406V17.314H68.2212V15.406H56.8812ZM56.8812 12.472V16.234H59.2752V12.472H56.8812ZM82.5939 11.302C78.9939 11.302 76.6899 12.49 76.6899 14.47C76.6899 16.414 78.9939 17.602 82.5939 17.602C86.1939 17.602 88.4979 16.414 88.4979 14.47C88.4979 12.49 86.1939 11.302 82.5939 11.302ZM82.5939 13.102C84.8439 13.102 86.1219 13.57 86.1219 14.47C86.1219 15.352 84.8439 15.802 82.5939 15.802C80.3439 15.802 79.0659 15.352 79.0659 14.47C79.0659 13.57 80.3439 13.102 82.5939 13.102ZM76.8699 1.672V3.562H87.4179V1.672H76.8699ZM75.1779 8.368V10.276H90.1899V8.368H75.1779ZM80.7399 5.47V8.854H83.1159V5.47H80.7399ZM86.0319 1.672V3.04C86.0319 4.336 86.0319 5.542 85.5819 7.252L87.9579 7.504C88.4079 5.776 88.4079 4.354 88.4079 3.04V1.672H86.0319ZM95.7145 3.562V5.434C95.7145 8.26 94.3645 11.338 91.5745 12.58L92.9245 14.47C96.0565 13.048 97.6225 9.286 97.6225 5.434V3.562H95.7145ZM96.2545 3.562V5.434C96.2545 9.142 97.8025 12.688 100.97 14.056L102.266 12.166C99.4765 11.014 98.1445 8.134 98.1445 5.434V3.562H96.2545ZM92.2405 2.536V4.498H101.582V2.536H92.2405ZM103.13 0.934V17.602H105.542V0.934H103.13ZM112.003 2.212V4.642C112.003 7.738 110.725 10.942 107.917 12.256L109.357 14.182C112.507 12.634 113.947 8.764 113.947 4.642V2.212H112.003ZM112.489 2.212V4.642C112.489 8.638 113.803 12.346 116.809 13.876L118.249 11.968C115.585 10.672 114.397 7.63 114.397 4.642V2.212H112.489ZM118.915 0.934V17.602H121.327V0.934H118.915ZM120.787 7.342V9.34H123.739V7.342H120.787ZM135.546 0.934V11.5H137.94V0.934H135.546ZM137.274 5.182V7.144H140.154V5.182H137.274ZM132.522 11.68C129.084 11.68 126.924 12.778 126.924 14.65C126.924 16.504 129.084 17.602 132.522 17.602C135.96 17.602 138.12 16.504 138.12 14.65C138.12 12.778 135.96 11.68 132.522 11.68ZM132.522 13.48C134.628 13.48 135.744 13.858 135.744 14.65C135.744 15.442 134.628 15.82 132.522 15.82C130.416 15.82 129.3 15.442 129.3 14.65C129.3 13.858 130.416 13.48 132.522 13.48ZM124.818 2.518V4.372H134.628V2.518H124.818ZM129.732 4.93C127.302 4.93 125.628 6.136 125.628 7.918C125.628 9.718 127.302 10.906 129.732 10.906C132.144 10.906 133.818 9.718 133.818 7.918C133.818 6.136 132.144 4.93 129.732 4.93ZM129.732 6.676C130.794 6.676 131.532 7.108 131.532 7.918C131.532 8.728 130.794 9.16 129.732 9.16C128.652 9.16 127.932 8.728 127.932 7.918C127.932 7.108 128.652 6.676 129.732 6.676ZM128.526 0.825999V3.508H130.92V0.825999H128.526ZM152.806 0.915999V17.638H155.218V0.915999H152.806ZM146.236 2.086C143.716 2.086 141.862 4.39 141.862 8.026C141.862 11.698 143.716 14.002 146.236 14.002C148.756 14.002 150.61 11.698 150.61 8.026C150.61 4.39 148.756 2.086 146.236 2.086ZM146.236 4.264C147.478 4.264 148.306 5.578 148.306 8.026C148.306 10.51 147.478 11.842 146.236 11.842C144.994 11.842 144.148 10.51 144.148 8.026C144.148 5.578 144.994 4.264 146.236 4.264ZM163.849 10.69V17.422H169.933V10.69H167.719V12.328H166.063V10.69H163.849ZM166.063 14.056H167.719V15.622H166.063V14.056ZM172.507 10.564V11.806C172.507 13.372 171.697 14.974 169.699 15.802L170.869 17.584C173.335 16.63 174.325 14.254 174.325 11.806V10.564H172.507ZM173.065 10.564V11.806C173.065 14.434 174.001 16.684 176.521 17.584L177.709 15.802C175.675 15.118 174.883 13.534 174.883 11.806V10.564H173.065ZM170.437 4.498V6.442H174.613V4.498H170.437ZM166.621 1.564C164.101 1.564 162.211 3.184 162.211 5.488C162.211 7.792 164.101 9.43 166.621 9.43C169.123 9.43 171.013 7.792 171.013 5.488C171.013 3.184 169.123 1.564 166.621 1.564ZM166.621 3.526C167.845 3.526 168.727 4.264 168.727 5.488C168.727 6.712 167.845 7.468 166.621 7.468C165.397 7.468 164.497 6.712 164.497 5.488C164.497 4.264 165.397 3.526 166.621 3.526ZM173.569 0.934V9.754H175.963V0.934H173.569ZM183.144 2.086C180.642 2.086 178.842 4.39 178.842 8.026C178.842 11.698 180.642 14.002 183.144 14.002C185.628 14.002 187.446 11.698 187.446 8.026C187.446 4.39 185.628 2.086 183.144 2.086ZM183.144 4.264C184.368 4.264 185.16 5.578 185.16 8.026C185.16 10.51 184.368 11.842 183.144 11.842C181.938 11.842 181.128 10.51 181.128 8.026C181.128 5.578 181.938 4.264 183.144 4.264ZM190.182 0.915999V17.638H192.558V0.915999H190.182ZM186.744 6.928V8.854H191.19V6.928H186.744ZM198.46 9.394V14.074H200.836V9.394H198.46ZM204.508 9.394V14.074H206.902V9.394H204.508ZM195.148 13.732V15.676H210.232V13.732H195.148ZM202.672 1.744C199.072 1.744 196.444 3.508 196.444 6.226C196.444 8.944 199.072 10.69 202.672 10.69C206.254 10.69 208.9 8.944 208.9 6.226C208.9 3.508 206.254 1.744 202.672 1.744ZM202.672 3.616C204.994 3.616 206.542 4.57 206.542 6.226C206.542 7.864 204.994 8.836 202.672 8.836C200.35 8.836 198.802 7.864 198.802 6.226C198.802 4.57 200.35 3.616 202.672 3.616Z" fill="#DF8383"/>
</svg>
