<svg width="23" height="23" viewBox="0 0 23 23" fill="none" xmlns="http://www.w3.org/2000/svg">
<mask id="mask0_752_795" style="mask-type:alpha" maskUnits="userSpaceOnUse" x="0" y="0" width="23" height="23">
<rect width="23" height="23" fill="#CDCDCD"/>
</mask>
<g mask="url(#mask0_752_795)">
<path d="M6.85205 20.2209C6.61247 19.9813 6.49268 19.6976 6.49268 19.3699C6.49268 19.0428 6.61247 18.7594 6.85205 18.5198L13.8718 11.5L6.82809 4.45629C6.60448 4.23268 6.49268 3.95317 6.49268 3.61775C6.49268 3.28233 6.61247 2.99483 6.85205 2.75525C7.09163 2.51567 7.3753 2.39587 7.70305 2.39587C8.03016 2.39587 8.31351 2.51567 8.55309 2.75525L16.6031 10.8292C16.6989 10.925 16.767 11.0289 16.8072 11.1407C16.8468 11.2525 16.8666 11.3723 16.8666 11.5C16.8666 11.6278 16.8468 11.7476 16.8072 11.8594C16.767 11.9712 16.6989 12.075 16.6031 12.1709L8.52913 20.2448C8.30552 20.4684 8.03016 20.5803 7.70305 20.5803C7.3753 20.5803 7.09163 20.4605 6.85205 20.2209Z" fill="#CDCDCD"/>
</g>
</svg>
