<svg width="25" height="25" viewBox="0 0 25 25" fill="none" xmlns="http://www.w3.org/2000/svg">
<mask id="mask0_541_332" style="mask-type:alpha" maskUnits="userSpaceOnUse" x="0" y="0" width="25" height="25">
<rect x="0.181763" y="0.181763" width="24.5455" height="24.5455" fill="#696969"/>
</mask>
<g mask="url(#mask0_541_332)">
<path d="M17.5682 20.6364C17.2784 20.6364 17.0357 20.5382 16.84 20.3419C16.6436 20.1462 16.5455 19.9035 16.5455 19.6137V16.5455H13.4773C13.1875 16.5455 12.9448 16.4473 12.7491 16.251C12.5527 16.0553 12.4545 15.8126 12.4545 15.5228C12.4545 15.233 12.5527 14.9899 12.7491 14.7936C12.9448 14.5979 13.1875 14.5001 13.4773 14.5001H16.5455V11.4319C16.5455 11.1421 16.6436 10.899 16.84 10.7027C17.0357 10.507 17.2784 10.4091 17.5682 10.4091C17.858 10.4091 18.1007 10.507 18.2964 10.7027C18.4927 10.899 18.5909 11.1421 18.5909 11.4319V14.5001H21.6591C21.9489 14.5001 22.1916 14.5979 22.3873 14.7936C22.5836 14.9899 22.6818 15.233 22.6818 15.5228C22.6818 15.8126 22.5836 16.0553 22.3873 16.251C22.1916 16.4473 21.9489 16.5455 21.6591 16.5455H18.5909V19.6137C18.5909 19.9035 18.4927 20.1462 18.2964 20.3419C18.1007 20.5382 17.858 20.6364 17.5682 20.6364ZM4.27273 16.5455C3.98295 16.5455 3.74023 16.4473 3.54455 16.251C3.34818 16.0553 3.25 15.8126 3.25 15.5228C3.25 15.233 3.34818 14.9899 3.54455 14.7936C3.74023 14.5979 3.98295 14.5001 4.27273 14.5001H9.38636C9.67614 14.5001 9.9192 14.5979 10.1156 14.7936C10.3112 14.9899 10.4091 15.233 10.4091 15.5228C10.4091 15.8126 10.3112 16.0553 10.1156 16.251C9.9192 16.4473 9.67614 16.5455 9.38636 16.5455H4.27273ZM4.27273 12.4546C3.98295 12.4546 3.74023 12.3564 3.54455 12.1601C3.34818 11.9644 3.25 11.7216 3.25 11.4319C3.25 11.1421 3.34818 10.899 3.54455 10.7027C3.74023 10.507 3.98295 10.4091 4.27273 10.4091H13.4773C13.767 10.4091 14.0101 10.507 14.2065 10.7027C14.4022 10.899 14.5 11.1421 14.5 11.4319C14.5 11.7216 14.4022 11.9644 14.2065 12.1601C14.0101 12.3564 13.767 12.4546 13.4773 12.4546H4.27273ZM4.27273 8.36369C3.98295 8.36369 3.74023 8.26585 3.54455 8.07017C3.34818 7.87381 3.25 7.63074 3.25 7.34096C3.25 7.05119 3.34818 6.80812 3.54455 6.61176C3.74023 6.41608 3.98295 6.31824 4.27273 6.31824H13.4773C13.767 6.31824 14.0101 6.41608 14.2065 6.61176C14.4022 6.80812 14.5 7.05119 14.5 7.34096C14.5 7.63074 14.4022 7.87381 14.2065 8.07017C14.0101 8.26585 13.767 8.36369 13.4773 8.36369H4.27273Z" fill="#696969"/>
</g>
</svg>
