<svg width="26" height="21" viewBox="0 0 26 21" fill="none" xmlns="http://www.w3.org/2000/svg">
<path d="M23.4 0H2.6C1.17 0 0 1.18125 0 2.625V18.375C0 19.8188 1.17 21 2.6 21H23.4C24.83 21 26 19.8188 26 18.375V2.625C26 1.18125 24.83 0 23.4 0ZM22.88 5.57812L14.378 10.9462C13.533 11.4844 12.467 11.4844 11.622 10.9462L3.12 5.57812C2.795 5.36812 2.6 5.01375 2.6 4.63313C2.6 3.75375 3.549 3.22875 4.29 3.68812L13 9.1875L21.71 3.68812C22.451 3.22875 23.4 3.75375 23.4 4.63313C23.4 5.01375 23.205 5.36812 22.88 5.57812Z" fill="#CE4040"/>
</svg>
