<svg width="21" height="27" viewBox="0 0 21 27" fill="none" xmlns="http://www.w3.org/2000/svg">
<path d="M20.3222 14.2492C18.2611 8.89299 10.9225 8.60417 12.6948 0.81925C12.8261 0.241617 12.2091 -0.204736 11.7102 0.0972087C6.94473 2.90661 3.51831 8.53853 6.39335 15.9165C6.62965 16.5204 5.92074 17.0849 5.40875 16.691C3.03257 14.8925 2.78314 12.3063 2.99319 10.4552C3.07196 9.77257 2.17925 9.44436 1.79854 10.0089C0.905834 11.3742 0 13.5797 0 16.9011C0.498865 24.2528 6.70842 26.5108 8.94019 26.7996C12.1303 27.2066 15.583 26.6158 18.0642 24.3447C20.7948 21.811 21.7925 17.7675 20.3222 14.2492ZM8.13938 20.8526C10.0298 20.3931 11.0013 19.0278 11.2638 17.82C11.6971 15.9427 10.0036 14.1048 11.1457 11.1379C11.5789 13.5928 15.4386 15.1288 15.4386 17.8069C15.5436 21.1283 11.9465 23.9771 8.13938 20.8526Z" fill="#C6C6C6"/>
<path d="M20.3222 14.2492C18.2611 8.89299 10.9225 8.60417 12.6948 0.81925C12.8261 0.241617 12.2091 -0.204736 11.7102 0.0972087C6.94473 2.90661 3.51831 8.53853 6.39335 15.9165C6.62965 16.5204 5.92074 17.0849 5.40875 16.691C3.03257 14.8925 2.78314 12.3063 2.99319 10.4552C3.07196 9.77257 2.17925 9.44436 1.79854 10.0089C0.905834 11.3742 0 13.5797 0 16.9011C0.498865 24.2528 6.70842 26.5108 8.94019 26.7996C12.1303 27.2066 15.583 26.6158 18.0642 24.3447C20.7948 21.811 21.7925 17.7675 20.3222 14.2492ZM8.13938 20.8526C10.0298 20.3931 11.0013 19.0278 11.2638 17.82C11.6971 15.9427 10.0036 14.1048 11.1457 11.1379C11.5789 13.5928 15.4386 15.1288 15.4386 17.8069C15.5436 21.1283 11.9465 23.9771 8.13938 20.8526Z" fill="#C6C6C6"/>
</svg>
