<svg width="19" height="14" viewBox="0 0 19 14" fill="none" xmlns="http://www.w3.org/2000/svg">
<path d="M16.5 0H1.83333C0.825 0 0.00916666 0.7875 0.00916666 1.75L0 12.25C0 13.2125 0.825 14 1.83333 14H16.5C17.5083 14 18.3333 13.2125 18.3333 12.25V1.75C18.3333 0.7875 17.5083 0 16.5 0ZM15.5833 12.25H2.75C2.24583 12.25 1.83333 11.8562 1.83333 11.375V3.5L8.195 7.2975C8.79083 7.65625 9.5425 7.65625 10.1383 7.2975L16.5 3.5V11.375C16.5 11.8562 16.0875 12.25 15.5833 12.25ZM9.16667 6.125L1.83333 1.75H16.5L9.16667 6.125Z" fill="#B3B3B3"/>
</svg>
